<svg xmlns="http://www.w3.org/2000/svg" viewBox="0 0 294 95"><defs><style>.cls-1{font-size:62.22px;fill:#1b75bb;font-family:Lato-Black, Lato;}.cls-2{font-size:11.02px;font-family:Skia, Skia;}.cls-3{fill:#775185;}.cls-4{fill:#90278e;}.cls-5{fill:#eb008b;}.cls-6{fill:#d58028;}.cls-15,.cls-7{fill:#00adee;}.cls-8{fill:#90bd3e;}.cls-9{fill:#8bc53f;}.cls-10{fill:#e6aa39;}.cls-11{fill:#ffdd15;}.cls-12{fill:#f05a28;}.cls-13{fill:#098949;}.cls-14{fill:#ab6ea9;}.cls-15{opacity:0.49;}.cls-16{fill:#ec1c24;}.cls-16,.cls-17{stroke:#231f20;stroke-miterlimit:10;stroke-width:0.25px;}.cls-17{fill:#fff;}</style></defs><title>logo</title><g id="Header"><text class="cls-1" transform="translate(11 59.85)">K</text><text class="cls-1" transform="translate(127.56 59.85)">PSI</text><text class="cls-2" transform="translate(229.15 22.02) scale(1.02 1)">Kompetisi <tspan x="0" y="12.33">Penelitian </tspan><tspan x="0" y="24.66">Siswa </tspan><tspan x="0" y="36.99">Indonesia</tspan></text><path class="cls-3" d="M114.29,45.17A21.59,21.59,0,0,0,88.88,19.93l0-.19a14.18,14.18,0,0,1,5-.8A26,26,0,0,1,118.73,46c0,.16,0,.32,0,.48l-4.5-1Z"/><path class="cls-4" d="M93.82,18.94a14.18,14.18,0,0,0-5,.8l-.91-4.58a26.46,26.46,0,0,1,31.14,30.93c0,.17-.07.33-.1.5l-.27-.06c0-.16,0-.32,0-.48A26,26,0,0,0,93.82,18.94Z"/><path class="cls-5" d="M114.29,45.17A21.59,21.59,0,0,0,88.88,19.93l0-.19a14.18,14.18,0,0,1,5-.8A26,26,0,0,1,118.73,46c0,.16,0,.32,0,.48l-4.5-1Z"/><path class="cls-6" d="M71.83,36.55l-.08.41A21.59,21.59,0,0,0,97.15,62.2l1,4.78A26.46,26.46,0,0,1,67,36c0-.17.07-.33.1-.5Z"/><path class="cls-7" d="M86.47,9.21l.61-.12v0l-.56.21A32.48,32.48,0,0,0,70.39,56.11L66,59.05A32.49,32.49,0,0,1,86.47,9.21Z"/><path class="cls-8" d="M86.53,9.32l.56-.21L88.17,15l-.5.1A26.5,26.5,0,0,0,71,55.73l-.57.38A32.48,32.48,0,0,1,86.53,9.32Z"/><path class="cls-9" d="M86.53,9.32l.56-.21L88.17,15l-.5.1A26.5,26.5,0,0,0,71,55.73l-.57.38A32.48,32.48,0,0,1,86.53,9.32Z"/><path class="cls-7" d="M117.93,61.56l-.4.48h0l.3-.51a32.48,32.48,0,0,0-17.29-46.37L102,10.07a32.49,32.49,0,0,1,15.88,51.49Z"/><path class="cls-9" d="M117.81,61.52l-.3.51L113,58.2l.32-.39a26.5,26.5,0,0,0-13-42l.2-.65a32.48,32.48,0,0,1,17.29,46.37Z"/><path class="cls-10" d="M108.16,32a17.72,17.72,0,0,0-29.34-1.1L78,30.28a21.72,21.72,0,0,1,33.65,0l-3.29,2Z"/><path class="cls-11" d="M81.93,26.54A21.75,21.75,0,0,0,78,30.28l-2.39-1.74a21.72,21.72,0,0,1,36,1.34l.21.36-.15.09A21.69,21.69,0,0,0,81.93,26.54Z"/><path class="cls-12" d="M107.77,32.08A17.72,17.72,0,0,0,78.42,31l-.83-.61a21.72,21.72,0,0,1,33.65,0l-3.29,2Z"/><path class="cls-13" d="M97.53,27.57l-.14,0h.15Z"/><path class="cls-13" d="M98,24.3l.24.07.32.1-1,3.06h-.15l-.13,0a14.43,14.43,0,0,0-18.6,15.07l-.41,0a17,17,0,0,1,.07-2.52C79.29,30.53,88,23.56,98,24.3Z"/><path class="cls-13" d="M75.91,36.24a17.68,17.68,0,0,1,21.84-11.8c-9.94-.74-18.68,6.23-19.65,15.77A17,17,0,0,0,78,42.73L75.2,43A17.63,17.63,0,0,1,75.91,36.24Z"/><path class="cls-10" d="M97.75,24.44l.24.07.32.1-1,3.06h-.15l-.13,0A14.43,14.43,0,0,0,78.45,42.7l-.41,0a17,17,0,0,1,.07-2.52C79.07,30.67,87.81,23.7,97.75,24.44Z"/><path class="cls-7" d="M107.35,63.27l3,4.94a32.48,32.48,0,0,1-35-.07l-.47-.31.52.21A32.45,32.45,0,0,0,107.35,63.27Z"/><polygon class="cls-14" points="74.83 67.8 74.84 67.79 74.83 67.8 74.83 67.8"/><path class="cls-15" d="M74.83,67.8l.05,0-.06,0Z"/><path class="cls-14" d="M74.84,67.79l3.33-5,.42.28a26.5,26.5,0,0,0,28.67,0l.09.15A32.45,32.45,0,0,1,75.41,68l-.52-.21-.05,0Z"/><path class="cls-9" d="M74.84,67.79l3.33-5,.42.28a26.5,26.5,0,0,0,28.67,0l.09.15A32.45,32.45,0,0,1,75.41,68l-.52-.21-.05,0Z"/><path class="cls-4" d="M92.44,63a14.18,14.18,0,0,0,5-.87l1,4.57a26.46,26.46,0,0,1-31.57-30.5c0-.17.06-.33.1-.5l.27.05c0,.16,0,.32,0,.48A26,26,0,0,0,92.44,63Z"/><path class="cls-5" d="M71.62,37.08A21.59,21.59,0,0,0,97.37,62l0,.19a14.18,14.18,0,0,1-5,.87A26,26,0,0,1,67.16,36.26c0-.16,0-.32,0-.48l4.51.89Z"/><path class="cls-11" d="M102.9,56.26a21.75,21.75,0,0,0,4.2-3.45l2.26,1.91a21.72,21.72,0,0,1-35.78-3.95l-.19-.37.15-.08A21.69,21.69,0,0,0,102.9,56.26Z"/><path class="cls-12" d="M77.27,49.17a17.72,17.72,0,0,0,29.19,3.22l.79.67a21.72,21.72,0,0,1-33.55-2.49l3.42-1.71Z"/><path class="cls-13" d="M109.6,46.34a17.68,17.68,0,0,1-21.84,11.8c9.94.74,18.68-6.23,19.65-15.77a17,17,0,0,0,.07-2.52l2.83-.25A17.63,17.63,0,0,1,109.6,46.34Z"/><path class="cls-10" d="M87.76,58.13l-.24-.07-.32-.1,1-3.06h.15l.13,0a14.43,14.43,0,0,0,18.6-15.07l.41,0a17,17,0,0,1-.07,2.52C106.44,51.91,97.7,58.87,87.76,58.13Z"/><circle class="cls-16" cx="93.02" cy="41.32" r="10.54" transform="translate(-7.02 22.56) rotate(-13.33)"/><path class="cls-17" d="M93.17,51.86A10.54,10.54,0,0,1,82.48,41.47l21.07-.31A10.54,10.54,0,0,1,93.17,51.86Z"/><rect class="cls-7" x="64.2" y="63.3" width="6.01" height="4.96" transform="translate(63.31 159.73) rotate(-132.02)"/><rect class="cls-7" x="49.02" y="64.72" width="8.39" height="27.31" transform="translate(30.61 170.37) rotate(-132.02)"/></g></svg>